<mxfile host="app.diagrams.net" modified="2023-06-04T14:56:50.781Z" agent="Mozilla/5.0 (Macintosh; Intel Mac OS X 10.15; rv:109.0) Gecko/20100101 Firefox/113.0" version="21.3.2" etag="dagORa8ZZ95xSvuqE4lL" type="github">
  <diagram name="第 1 页" id="0iXktD1OZlr2gCC74iac">
    <mxGraphModel>
      <root>
        <mxCell id="0" />
        <mxCell id="1" parent="0" />
      </root>
    </mxGraphModel>
  </diagram>
</mxfile>
